<svg width="50" height="50" viewBox="0 0 50 50" fill="none" xmlns="http://www.w3.org/2000/svg">
<circle cx="25" cy="25" r="25" fill="#00B6DE"/>
<path d="M25 15C27.717 15 28.056 15.01 29.122 15.06C30.187 15.11 30.912 15.277 31.55 15.525C32.21 15.779 32.766 16.123 33.322 16.678C33.8305 17.1779 34.224 17.7826 34.475 18.45C34.722 19.087 34.89 19.813 34.94 20.878C34.987 21.944 35 22.283 35 25C35 27.717 34.99 28.056 34.94 29.122C34.89 30.187 34.722 30.912 34.475 31.55C34.2247 32.2178 33.8311 32.8226 33.322 33.322C32.822 33.8303 32.2173 34.2238 31.55 34.475C30.913 34.722 30.187 34.89 29.122 34.94C28.056 34.987 27.717 35 25 35C22.283 35 21.944 34.99 20.878 34.94C19.813 34.89 19.088 34.722 18.45 34.475C17.7823 34.2245 17.1775 33.8309 16.678 33.322C16.1694 32.8222 15.7759 32.2175 15.525 31.55C15.277 30.913 15.11 30.187 15.06 29.122C15.013 28.056 15 27.717 15 25C15 22.283 15.01 21.944 15.06 20.878C15.11 19.812 15.277 19.088 15.525 18.45C15.7752 17.7822 16.1688 17.1773 16.678 16.678C17.1777 16.1692 17.7824 15.7757 18.45 15.525C19.088 15.277 19.812 15.11 20.878 15.06C21.944 15.013 22.283 15 25 15ZM25 20C23.6739 20 22.4021 20.5268 21.4645 21.4645C20.5268 22.4021 20 23.6739 20 25C20 26.3261 20.5268 27.5979 21.4645 28.5355C22.4021 29.4732 23.6739 30 25 30C26.3261 30 27.5979 29.4732 28.5355 28.5355C29.4732 27.5979 30 26.3261 30 25C30 23.6739 29.4732 22.4021 28.5355 21.4645C27.5979 20.5268 26.3261 20 25 20ZM31.5 19.75C31.5 19.4185 31.3683 19.1005 31.1339 18.8661C30.8995 18.6317 30.5815 18.5 30.25 18.5C29.9185 18.5 29.6005 18.6317 29.3661 18.8661C29.1317 19.1005 29 19.4185 29 19.75C29 20.0815 29.1317 20.3995 29.3661 20.6339C29.6005 20.8683 29.9185 21 30.25 21C30.5815 21 30.8995 20.8683 31.1339 20.6339C31.3683 20.3995 31.5 20.0815 31.5 19.75ZM25 22C25.7956 22 26.5587 22.3161 27.1213 22.8787C27.6839 23.4413 28 24.2044 28 25C28 25.7956 27.6839 26.5587 27.1213 27.1213C26.5587 27.6839 25.7956 28 25 28C24.2044 28 23.4413 27.6839 22.8787 27.1213C22.3161 26.5587 22 25.7956 22 25C22 24.2044 22.3161 23.4413 22.8787 22.8787C23.4413 22.3161 24.2044 22 25 22Z" fill="#FDFDFD"/>
</svg>
