<svg width="50" height="50" viewBox="0 0 50 50" fill="none" xmlns="http://www.w3.org/2000/svg">
<circle cx="25" cy="25" r="25" fill="#00B6DE"/>
<path d="M18.8682 36.3421H13.0445V21.1701H18.8682V36.3421ZM15.889 18.7429C15.3212 18.7475 14.7648 18.583 14.2905 18.2702C13.8162 17.9575 13.4452 17.5106 13.2248 16.9863C13.0044 16.462 12.9443 15.884 13.0523 15.3254C13.1603 14.7669 13.4314 14.2531 13.8313 13.8492C14.2312 13.4453 14.7418 13.1696 15.2984 13.0569C15.855 12.9442 16.4324 12.9997 16.9575 13.2164C17.4825 13.433 17.9315 13.801 18.2474 14.2737C18.5634 14.7464 18.7321 15.3025 18.7321 15.8714C18.7349 16.6299 18.437 17.3585 17.9039 17.897C17.3707 18.4354 16.646 18.7397 15.889 18.7429ZM36.3421 36.3421H31.6832V28.1733C31.6832 25.9326 30.6964 24.6818 28.9277 24.6818C27.0026 24.6818 25.8594 25.9839 25.8594 28.1733V36.3421H21.1991V21.1701H25.8581V22.876C26.3714 22.082 27.0764 21.4306 27.9077 20.982C28.7391 20.5334 29.6699 20.3022 30.6141 20.3097C33.9102 20.3097 36.3421 22.3236 36.3421 26.4931C36.3421 30.6626 36.3421 36.3421 36.3421 36.3421Z" fill="#FDFDFD"/>
</svg>
