<svg xmlns="http://www.w3.org/2000/svg" width="41" height="40" fill="none" viewBox="0 0 41 40"><g clip-path="url(#clip0_1_316)"><path fill="#00D1FF" d="M29.0607 16.4724L19.3048 24.8456C19.2918 24.8567 19.2788 24.8679 19.2674 24.8798C18.9516 25.1864 18.7775 25.5955 18.7775 26.0317C18.7775 26.9285 19.5246 27.6586 20.4441 27.6586C20.8868 27.6586 21.3051 27.4902 21.66 27.1438L30.2375 17.6203C30.5272 17.2985 30.5109 16.8116 30.2 16.5081C29.8891 16.2055 29.3927 16.1895 29.0607 16.4724Z"/><path fill="#00D1FF" d="M20.4441 6.50781C9.41542 6.50781 0.444092 15.2664 0.444092 26.0316C0.444092 28.051 0.764717 30.0499 1.39464 31.974C1.50534 32.3108 1.82597 32.5396 2.18894 32.5396H38.6993C39.0623 32.5396 39.3829 32.3108 39.4936 31.974C40.1235 30.0499 40.4441 28.0511 40.4441 26.0316C40.4441 15.2664 31.4728 6.50781 20.4441 6.50781ZM36.2775 26.8451H38.7196C38.6553 28.221 38.4667 29.5866 38.0808 30.9126H2.80737C2.42144 29.5866 2.23292 28.221 2.16854 26.8451H4.61073C5.07136 26.8451 5.44409 26.4813 5.44409 26.0316C5.44409 25.582 5.07136 25.2181 4.61073 25.2181H2.15292C2.27644 22.555 2.98729 20.0424 4.18011 17.8045L6.31479 19.0081C6.44667 19.082 6.58987 19.1169 6.73144 19.1169C7.01792 19.1169 7.29948 18.9716 7.45245 18.7102C7.68355 18.3209 7.54683 17.8236 7.14808 17.5988L5.01815 16.3979C6.44964 14.2214 8.34644 12.3699 10.5761 10.9726L11.8063 13.0531C11.9592 13.3137 12.2409 13.4598 12.5273 13.4598C12.6689 13.4598 12.8121 13.4249 12.9439 13.351C13.3427 13.1262 13.4794 12.6288 13.2483 12.2396L12.0157 10.1551C14.3083 8.99054 16.8824 8.29653 19.6107 8.17595V10.5752C19.6107 11.0249 19.9834 11.3888 20.444 11.3888C20.9046 11.3888 21.2774 11.0249 21.2774 10.5752V8.17595C24.0057 8.29653 26.5797 8.99054 28.8723 10.1551L27.6397 12.2396C27.4086 12.6288 27.5453 13.1262 27.9441 13.351C28.076 13.4249 28.2192 13.4598 28.3607 13.4598C28.6472 13.4598 28.9288 13.3136 29.0817 13.0531L30.3119 10.9726C32.5416 12.3699 34.4384 14.2214 35.8699 16.3979L33.74 17.5988C33.3412 17.8236 33.2045 18.3209 33.4356 18.7102C33.5885 18.9716 33.8702 19.1169 34.1566 19.1169C34.2982 19.1169 34.4414 19.082 34.5732 19.0081L36.7079 17.8045C37.9007 20.0425 38.6116 22.555 38.7351 25.2181H36.2773C35.8167 25.2181 35.4439 25.582 35.4439 26.0316C35.4441 26.4813 35.8168 26.8451 36.2775 26.8451Z"/></g><defs><clipPath id="clip0_1_316"><rect width="40" height="39.048" fill="#fff" transform="translate(0.444092)"/></clipPath></defs></svg>