<svg xmlns="http://www.w3.org/2000/svg" width="40" height="40" fill="none" viewBox="0 0 40 40"><path fill="#52E0FF" d="M33.3333 30C32.8333 30 32.5 29.8333 32.1667 29.5L21 18.1667L17 22.1667C16.3333 22.8333 15.3333 22.8333 14.6667 22.1667L5.5 12.8333C4.83333 12.1667 4.83333 11.1667 5.5 10.5C6.16667 9.83333 7.16667 9.83333 7.83333 10.5L15.8333 18.6667L19.8333 14.6667C20.5 14 21.5 14 22.1667 14.6667L34.5 27.1667C35.1667 27.8333 35.1667 28.8333 34.5 29.5C34.1667 29.8333 33.8333 30 33.3333 30Z"/><path fill="#52E0FF" d="M33.3334 30.0001H23.3334C22.3334 30.0001 21.6667 29.3334 21.6667 28.3334C21.6667 27.3334 22.3334 26.6667 23.3334 26.6667H31.6667V18.3334C31.6667 17.3334 32.3334 16.6667 33.3334 16.6667C34.3334 16.6667 35 17.3334 35 18.3334V28.3334C35 29.3334 34.3334 30.0001 33.3334 30.0001Z"/></svg>