<svg xmlns="http://www.w3.org/2000/svg" width="42" height="42" fill="none" viewBox="0 0 42 42"><path fill="#52E0FF" d="M19.7638 27.2327V11.01C19.7638 10.3304 19.213 9.77954 18.5334 9.77954C17.854 9.77954 17.3029 10.3304 17.3029 11.01V27.2327C15.14 27.7825 13.5352 29.7461 13.5352 32.0783C13.5352 34.8346 15.7773 37.077 18.5334 37.077C21.2894 37.077 23.5318 34.8346 23.5318 32.0783C23.5318 29.7461 21.9268 27.7825 19.7638 27.2327ZM18.5334 34.6161C17.1343 34.6161 15.9962 33.4776 15.9962 32.0783C15.9962 30.6786 17.1343 29.5401 18.5334 29.5401C19.9327 29.5401 21.0709 30.6786 21.0709 32.0783C21.0709 33.4776 19.9327 34.6161 18.5334 34.6161Z"/><path fill="#52E0FF" d="M25.0269 24.2588V6.10748C25.0269 2.73972 22.2875 0 18.92 0C15.5529 0 12.8135 2.73972 12.8135 6.10748V24.2588C10.4141 26.1343 9 29.0102 9 32.0781C9 37.5492 13.4502 42 18.92 42C24.3902 42 28.8403 37.5492 28.8403 32.0781C28.8403 29.0102 27.4263 26.1343 25.0269 24.2588ZM18.92 39.5391C14.8069 39.5391 11.4609 36.1921 11.4609 32.0781C11.4609 29.6033 12.685 27.2943 14.7355 25.9014C15.0726 25.6723 15.2744 25.2909 15.2744 24.8833V6.10748C15.2744 4.09676 16.9099 2.46094 18.92 2.46094C20.9304 2.46094 22.5659 4.09676 22.5659 6.10748V24.8833C22.5659 25.2909 22.7678 25.6723 23.1049 25.9014C25.1553 27.2943 26.3794 29.6033 26.3794 32.0781C26.3794 36.1921 23.0331 39.5391 18.92 39.5391Z"/><path fill="#52E0FF" d="M32.1451 19.6455H28.3316C27.652 19.6455 27.1011 20.1963 27.1011 20.876C27.1011 21.5556 27.652 22.1064 28.3316 22.1064H32.1451C32.8244 22.1064 33.3756 21.5556 33.3756 20.876C33.3756 20.1963 32.8244 19.6455 32.1451 19.6455Z"/><path fill="#52E0FF" d="M32.1451 14.7227H28.3316C27.652 14.7227 27.1011 15.2735 27.1011 15.9531C27.1011 16.6328 27.652 17.1836 28.3316 17.1836H32.1451C32.8244 17.1836 33.3756 16.6328 33.3756 15.9531C33.3756 15.2735 32.8244 14.7227 32.1451 14.7227Z"/><path fill="#52E0FF" d="M32.1451 9.7998H28.3316C27.652 9.7998 27.1011 10.3506 27.1011 11.0303C27.1011 11.7099 27.652 12.2607 28.3316 12.2607H32.1451C32.8244 12.2607 33.3756 11.7099 33.3756 11.0303C33.3756 10.3506 32.8244 9.7998 32.1451 9.7998Z"/><path fill="#52E0FF" d="M28.3316 7.33789H32.1451C32.8244 7.33789 33.3756 6.78706 33.3756 6.10742C33.3756 5.4281 32.8244 4.87695 32.1451 4.87695H28.3316C27.652 4.87695 27.1011 5.4281 27.1011 6.10742C27.1011 6.78706 27.652 7.33789 28.3316 7.33789Z"/></svg>