<svg width="50" height="50" viewBox="0 0 50 50" fill="none" xmlns="http://www.w3.org/2000/svg">
<circle cx="25" cy="25" r="25" fill="#00B6DE"/>
<path d="M37.4724 17.5162C36.9713 16.8973 36.2654 16.478 35.4822 16.3342C29.0389 15.8886 22.5725 15.8886 16.1291 16.3342C15.4915 16.4532 14.901 16.7516 14.4271 17.1946C12.3606 19.111 13.0026 29.3819 13.5065 31.045C13.6448 31.6322 13.9271 32.1756 14.328 32.6264C14.8014 33.094 15.4049 33.4078 16.0595 33.527C22.5086 34.0599 28.9898 34.0801 35.4421 33.5873C36.1144 33.4719 36.7356 33.1545 37.2231 32.6773C39.1355 30.7689 39.0015 19.9218 37.4724 17.5162ZM23.2427 28.2736L23.2427 21.0931C25.7956 22.2992 27.7737 23.4544 30.1123 24.7034C28.1825 25.7675 25.7957 26.9656 23.2427 28.2736Z" fill="#FDFDFD"/>
</svg>
